<svg width="1805" height="1849" viewBox="0 0 1805 1849" fill="none" xmlns="http://www.w3.org/2000/svg">
<path d="M389.5 28.5L477.5 99L685.5 223.5L762 160L834.5 513M834.5 513L685.5 624.5M834.5 513L957 543.5M685.5 624.5L267 513L17.5 769L57 1176.5L199.5 1641M685.5 624.5L731.5 780M199.5 1641L580.5 1463.5M199.5 1641L552 1820.5M731.5 780L1218 1082.5M731.5 780L957 543.5M1218 1082.5L1261.5 780M1218 1082.5L1290 1259.5M1218 1082.5L1478.5 839M1261.5 780L957 543.5M1261.5 780L1478.5 839M1261.5 780L1182.5 491M957 543.5L1182.5 491M1478.5 839L1776.5 701M1182.5 491L1364.5 228" stroke="#D9D9D9" stroke-width="15"/>
<circle cx="687.5" cy="622.5" r="28.5" fill="#D9D9D9"/>
<circle cx="272.5" cy="512.5" r="28.5" fill="#D9D9D9"/>
<circle cx="28.5" cy="768.5" r="28.5" fill="#D9D9D9"/>
<circle cx="57.5" cy="1181.5" r="28.5" fill="#D9D9D9"/>
<circle cx="199.5" cy="1642.5" r="28.5" fill="#D9D9D9"/>
<circle cx="577.5" cy="1467.5" r="28.5" fill="#D9D9D9"/>
<circle cx="730" cy="777" r="43" fill="#D9D9D9"/>
<circle cx="837.5" cy="512.5" r="28.5" fill="#D9D9D9"/>
<circle cx="758.5" cy="164.5" r="28.5" fill="#D9D9D9"/>
<circle cx="959.5" cy="541.5" r="28.5" fill="#D9D9D9"/>
<circle cx="1223.5" cy="1079.5" r="28.5" fill="#D9D9D9"/>
<circle cx="1294.5" cy="1258.5" r="28.5" fill="#D9D9D9"/>
<circle cx="1477.5" cy="833.5" r="28.5" fill="#D9D9D9"/>
<circle cx="1776.5" cy="701.5" r="28.5" fill="#D9D9D9"/>
<circle cx="1178.5" cy="498.5" r="28.5" fill="#D9D9D9"/>
<circle cx="1265.5" cy="776.5" r="28.5" fill="#D9D9D9"/>
<circle cx="1367.5" cy="226.5" r="28.5" fill="#D9D9D9"/>
<circle cx="687.5" cy="221.5" r="28.5" fill="#D9D9D9"/>
<circle cx="486.5" cy="107.5" r="28.5" fill="#D9D9D9"/>
<circle cx="386.5" cy="28.5" r="28.5" fill="#D9D9D9"/>
<circle cx="563.5" cy="1820.5" r="28.5" fill="#D9D9D9"/>
</svg>
